<?xml version="1.0" standalone="no"?>
<!DOCTYPE svg PUBLIC "-//W3C//DTD SVG 20010904//EN"
 "http://www.w3.org/TR/2001/REC-SVG-20010904/DTD/svg10.dtd">
<svg version="1.0" xmlns="http://www.w3.org/2000/svg"
 width="32px" height="32px" viewBox="0 0 32 32"
 preserveAspectRatio="xMidYMid meet">
<metadata>
Created by potrace 1.13, written by Peter Selinger 2001-2015
</metadata>
<g transform="translate(0,32) scale(0.100000,-0.100000)"
fill="#000000" stroke="none">
<path d="M105 276 c-25 -18 -13 -43 22 -49 17 -2 8 -5 -22 -6 -59 -1 -75 -13
-75 -56 0 -56 56 -80 62 -27 3 25 7 27 58 32 l55 5 3 45 c3 33 -1 47 -14 57
-23 17 -65 17 -89 -1z"/>
<path d="M228 183 c-3 -26 -7 -28 -58 -33 l-55 -5 -3 -49 c-4 -54 5 -66 50
-66 41 0 58 10 58 34 0 15 9 25 30 33 34 13 48 52 31 89 -15 34 -49 32 -53 -3z"/>
</g>
</svg>
